inDegrees=no
num_controls=7
num_derivatives=13
num_iterations=120
num_multipliers=7
num_parameters=0
num_slacks=7
num_states=26
objective=0.489202
objective_accelerations=0.016286
objective_balance=0.003793
objective_effort=0.023909
objective_height=0.439688
objective_ligament=0.005526
solver_duration=1911.994455
status=Solve_Succeeded
success=true
DataType=double
version=3
OpenSimVersion=4.5
endheader
time	/jointset/ground_pelvis/pelvis_tilt/value	/jointset/ground_pelvis/pelvis_tx/value	/jointset/ground_pelvis/pelvis_ty/value	/jointset/hip_l/hip_flexion_l/value	/jointset/hip_l/hip_adduction_l/value	/jointset/hip_l/hip_rotation_l/value	/jointset/back/lumbar_extension/value	/jointset/patellofemoral_l/patellar_flexion_l/value	/jointset/knee_l/knee_flexion_l/value	/jointset/knee_l/knee_adduction_l/value	/jointset/knee_l/knee_rotation_l/value	/jointset/ankle_l/ankle_angle_l/value	/jointset/subtalar_l/subtalar_angle_l/value	/jointset/ground_pelvis/pelvis_tilt/speed	/jointset/ground_pelvis/pelvis_tx/speed	/jointset/ground_pelvis/pelvis_ty/speed	/jointset/hip_l/hip_flexion_l/speed	/jointset/hip_l/hip_adduction_l/speed	/jointset/hip_l/hip_rotation_l/speed	/jointset/back/lumbar_extension/speed	/jointset/patellofemoral_l/patellar_flexion_l/speed	/jointset/knee_l/knee_flexion_l/speed	/jointset/knee_l/knee_adduction_l/speed	/jointset/knee_l/knee_rotation_l/speed	/jointset/ankle_l/ankle_angle_l/speed	/jointset/subtalar_l/subtalar_angle_l/speed	/forceset/tau_hip_flexion_l	/forceset/tau_hip_adduction_l	/forceset/tau_hip_rotation_l	/forceset/tau_knee_flexion_l	/forceset/tau_ankle_angle_l	/forceset/tau_subtalar_angle_l	/forceset/tau_lumbar_extension	lambda_cid13_p0	lambda_cid13_p1	lambda_cid13_p2	lambda_cid13_p3	lambda_cid13_p4	lambda_cid13_p5	lambda_cid14_p0	/jointset/ground_pelvis/pelvis_tilt/accel	/jointset/ground_pelvis/pelvis_tx/accel	/jointset/ground_pelvis/pelvis_ty/accel	/jointset/hip_l/hip_flexion_l/accel	/jointset/hip_l/hip_adduction_l/accel	/jointset/hip_l/hip_rotation_l/accel	/jointset/back/lumbar_extension/accel	/jointset/patellofemoral_l/patellar_flexion_l/accel	/jointset/knee_l/knee_flexion_l/accel	/jointset/knee_l/knee_adduction_l/accel	/jointset/knee_l/knee_rotation_l/accel	/jointset/ankle_l/ankle_angle_l/accel	/jointset/subtalar_l/subtalar_angle_l/accel	gamma_cid13_p0	gamma_cid13_p1	gamma_cid13_p2	gamma_cid13_p3	gamma_cid13_p4	gamma_cid13_p5	gamma_cid14_p0
1	0.001440496550978297	-0.03849680204355441	0.8588509209619331	0.6556797041478963	-0.3423687562637794	-0.1308129253988848	-0.9599307851237541	0.6828808167659238	0.6828808167657778	-0.1742022517227332	-0.1745068841501983	0.0651482955306667	-0.02889191932838524	0.1240405654272516	0.03161575324569057	0.04597211828577297	-0.2904747185841617	0.01029697887534853	-0.06372875564474603	-0.005293759429238817	-0.1602509293485399	-0.1602509293486118	-5.235700018869612e-05	-1.213057495461538e-05	-0.002150215253085899	0.01123737206056123	-0.2746178446899976	0.04911432912105952	0.006731140370903225	-0.1823672500063399	0.06857286415519093	0.04014174366242695	0.3638911413291303	-25.38746454226683	-15.13215095620792	4.406852646364517	1.835748655962832	-739.8607805219718	-69.82397594084594	-18.57268689630075	0.3733584543914286	0.2231759225841216	0.4131103178619275	-2.103512821914507	0.1509335637614278	-0.8497520836378912	1.064513682926025	-2.116760944973124	-2.1167609449731	0.02168471856782436	0.002824868265679994	-0.5149022044841073	0.00663210116490039	-1.073012272024055e-08	5.941281824108051e-10	3.408569130524945e-08	9.850195318610475e-09	-2.800378078644413e-08	1.492650436078997e-09	-5.486474712809848e-09
1.01	0.002699094584362106	-0.03816929130692868	0.8593312069261225	0.6526704269793704	-0.3422579210610346	-0.1314930457712876	-0.9599288708984632	0.6811729436857792	0.6811729436857253	-0.1742008183943991	-0.1745070012908617	0.06510150574663019	-0.02877872113649357	0.1276737887689389	0.03390802176889356	0.05008652654679022	-0.3114065074947413	0.01187556635666331	-0.0722963785655804	0.005791487954786814	-0.1813341933064264	-0.1813341933064676	0.0003396708430633409	-8.431850257944531e-06	-0.007184679843673833	0.01141541115971264	-0.2749416768787696	0.04947762367834672	0.006749741212785052	-0.1816257378892961	0.0681270744169605	0.04022524288448046	0.3647515825597592	-25.55094648952928	-15.15123034989394	4.422961923130251	1.605451799442641	-740.4496257169585	-69.8473110096716	-18.62801306635307	0.3575157878834837	0.2354991834075993	0.4108169318657088	-2.091882235264118	0.1621436140861134	-0.8604323965661724	1.147762787163227	-2.105683815700328	-2.10568381569567	0.04805988657643337	-0.000419937269224702	-0.494259999443906	0.02535737753780836	-1.38612429299617e-08	-1.599260984248275e-09	3.925664017224093e-08	1.352669792872004e-08	-3.467046958840781e-08	-6.136181740372255e-11	-6.486854041712119e-09
1.02	0.003993867153927	-0.037818208511827	0.859852679143251	0.6494510578598145	-0.3421311355287212	-0.132258875372945	-0.9598126576951783	0.6792539230271536	0.6792539230271969	-0.1741954451737685	-0.1745069939066412	0.06500506303406892	-0.02866334904096079	0.1312754726636688	0.03633016494087953	0.05420936887357736	-0.3324931087906982	0.01348704478875624	-0.08087060149681266	0.01756603617970957	-0.2024804450444708	-0.2024804450444796	0.0007356214612209564	1.277440080359838e-05	-0.01208080095817289	0.01167215278876715	-0.275265509067519	0.04984091823565443	0.006768342054630208	-0.1808842257722382	0.06768128467873824	0.04030874210655908	0.3656120237903978	-25.72452718643132	-15.16870751638937	4.439005250742585	1.400974962771901	-741.1830925755909	-69.87392589590098	-18.68996076663246	0.3670505649999358	0.2491508523407307	0.4147971310159081	-2.134475298989994	0.1575117539170584	-0.8510720857174714	1.202373851105506	-2.129358501004711	-2.129358501004367	0.02246927354893706	0.006326373538653868	-0.4872335092663156	0.02237260714552471	-1.529079041355152e-08	-2.478042718915732e-09	4.490249741837609e-08	1.419858986794819e-08	-3.641391876900744e-08	-1.603874243468584e-09	-7.49284236753434e-09
1.03	0.005324219207999701	-0.03744229845793834	0.860415335392655	0.6460205785912557	-0.3419880964348662	-0.1331104237166721	-0.9595751929857335	0.6771233451825832	0.6771233451826578	-0.1741861156165749	-0.174506736160231	0.06486032053832952	-0.02854505475778742	0.1347609364671822	0.03886919937631233	0.05831457557714546	-0.3535744287010552	0.01512412906594685	-0.08943367848334324	0.03004898290838469	-0.2236232643557124	-0.2236232643557187	0.001129227283799936	3.787889673528284e-05	-0.01684735228493431	0.01199650604659589	-0.2751003284742045	0.05004786018682449	0.006765197283889523	-0.1802115929608167	0.06739886464231826	0.04035934879870213	0.3659906774365691	-25.81842557533536	-15.18666417091268	4.456053682838079	1.186675750985725	-741.4408639332306	-69.92237479677731	-18.75846796473136	0.3341931254605747	0.258885741953736	0.4072789938377598	-2.090714733846118	0.1673052481619158	-0.8581248886119595	1.289566663601537	-2.104963013241847	-2.104963013241669	0.04764799615992291	0.0004781141725540365	-0.4683148197160351	0.03893181570306754	-1.670297491013998e-08	-3.343410092032249e-09	5.055320066838005e-08	1.483982251461632e-08	-3.810713081061353e-08	-3.146269324355711e-09	-8.498887928019007e-09
1.04	0.006688405667593622	-0.03704047685913345	0.8610188230198567	0.6423801352442347	-0.3418285868015297	-0.1340474427069571	-0.9592092364930311	0.6747816952714891	0.674781695271597	-0.1741728816492587	-0.1745062522435442	0.06466852275425619	-0.02842322391591537	0.1380423537680341	0.04151247392412482	0.06237564443313506	-0.3744859244829166	0.01678115268480561	-0.09796473080951724	0.04326439283118128	-0.2446948583492738	-0.244694858349279	0.001516503488284873	5.800845475222807e-05	-0.02149185862509508	0.01237946452848671	-0.2749351478808888	0.05025480213801378	0.00676205251309693	-0.1795389601493857	0.06711644460590643	0.0404099554908691	0.3663693310827336	-25.92243648450074	-15.20303939774626	4.473065993339959	0.9965965785791995	-741.8447263722434	-69.97447561819132	-18.83342721304292	0.3262412644676488	0.2699988748166827	0.4059695615002083	-2.100510473290893	0.1614996222506884	-0.8446671536461533	1.348866489929796	-2.115113437468692	-2.115113437468617	0.02120334993012764	0.005331385955706509	-0.4628245119461689	0.03409365195794515	-1.838666957691364e-08	-4.051719250191857e-09	5.559552661608008e-08	1.609719101136907e-08	-4.087423020986786e-08	-4.612701897081339e-09	-9.391500623207744e-09
